<mxfile host="app.diagrams.net" modified="2023-03-09T10:31:46.625Z" agent="5.0 (Windows NT 10.0; Win64; x64) AppleWebKit/537.36 (KHTML, like Gecko) Chrome/109.0.0.0 Safari/537.36" etag="ZnFcQFYkVjBVu-zsMXm9" version="21.0.4" type="github">
  <diagram name="第 1 页" id="tDI1bPy1J5Pk7kozhade">
    <mxGraphModel dx="830" dy="450" grid="0" gridSize="10" guides="1" tooltips="1" connect="1" arrows="1" fold="1" page="1" pageScale="1" pageWidth="827" pageHeight="1169" math="0" shadow="0">
      <root>
        <mxCell id="0" />
        <mxCell id="1" parent="0" />
        <mxCell id="rVmmXmZMEpbmEXp4o9_O-6" style="edgeStyle=orthogonalEdgeStyle;rounded=0;orthogonalLoop=1;jettySize=auto;html=1;exitX=1;exitY=0.5;exitDx=0;exitDy=0;entryX=0;entryY=0.5;entryDx=0;entryDy=0;fillColor=#dae8fc;strokeColor=#6c8ebf;" edge="1" parent="1" source="rVmmXmZMEpbmEXp4o9_O-1" target="rVmmXmZMEpbmEXp4o9_O-2">
          <mxGeometry relative="1" as="geometry" />
        </mxCell>
        <mxCell id="rVmmXmZMEpbmEXp4o9_O-7" style="edgeStyle=orthogonalEdgeStyle;rounded=0;orthogonalLoop=1;jettySize=auto;html=1;exitX=1;exitY=0.5;exitDx=0;exitDy=0;entryX=0;entryY=0.5;entryDx=0;entryDy=0;fillColor=#dae8fc;strokeColor=#6c8ebf;" edge="1" parent="1" source="rVmmXmZMEpbmEXp4o9_O-1" target="rVmmXmZMEpbmEXp4o9_O-3">
          <mxGeometry relative="1" as="geometry" />
        </mxCell>
        <mxCell id="rVmmXmZMEpbmEXp4o9_O-8" style="edgeStyle=orthogonalEdgeStyle;rounded=0;orthogonalLoop=1;jettySize=auto;html=1;exitX=1;exitY=0.5;exitDx=0;exitDy=0;entryX=0;entryY=0.5;entryDx=0;entryDy=0;fillColor=#dae8fc;strokeColor=#6c8ebf;" edge="1" parent="1" source="rVmmXmZMEpbmEXp4o9_O-1" target="rVmmXmZMEpbmEXp4o9_O-4">
          <mxGeometry relative="1" as="geometry" />
        </mxCell>
        <mxCell id="rVmmXmZMEpbmEXp4o9_O-9" style="edgeStyle=orthogonalEdgeStyle;rounded=0;orthogonalLoop=1;jettySize=auto;html=1;exitX=1;exitY=0.5;exitDx=0;exitDy=0;entryX=0;entryY=0.5;entryDx=0;entryDy=0;fillColor=#dae8fc;strokeColor=#6c8ebf;" edge="1" parent="1" source="rVmmXmZMEpbmEXp4o9_O-1" target="rVmmXmZMEpbmEXp4o9_O-5">
          <mxGeometry relative="1" as="geometry" />
        </mxCell>
        <mxCell id="rVmmXmZMEpbmEXp4o9_O-1" value="研究内容" style="rounded=1;whiteSpace=wrap;html=1;" vertex="1" parent="1">
          <mxGeometry x="90" y="300" width="80" height="40" as="geometry" />
        </mxCell>
        <mxCell id="rVmmXmZMEpbmEXp4o9_O-22" style="edgeStyle=orthogonalEdgeStyle;rounded=0;orthogonalLoop=1;jettySize=auto;html=1;exitX=1;exitY=0.5;exitDx=0;exitDy=0;entryX=0;entryY=0.5;entryDx=0;entryDy=0;fillColor=#f8cecc;strokeColor=#FF0000;" edge="1" parent="1" source="rVmmXmZMEpbmEXp4o9_O-2" target="rVmmXmZMEpbmEXp4o9_O-10">
          <mxGeometry relative="1" as="geometry" />
        </mxCell>
        <mxCell id="rVmmXmZMEpbmEXp4o9_O-23" style="edgeStyle=orthogonalEdgeStyle;rounded=0;orthogonalLoop=1;jettySize=auto;html=1;exitX=1;exitY=0.5;exitDx=0;exitDy=0;entryX=0;entryY=0.5;entryDx=0;entryDy=0;fillColor=#f8cecc;strokeColor=#FF0000;" edge="1" parent="1" source="rVmmXmZMEpbmEXp4o9_O-2" target="rVmmXmZMEpbmEXp4o9_O-11">
          <mxGeometry relative="1" as="geometry" />
        </mxCell>
        <mxCell id="rVmmXmZMEpbmEXp4o9_O-2" value="1.柔性结构航天器模型" style="rounded=1;whiteSpace=wrap;html=1;" vertex="1" parent="1">
          <mxGeometry x="210" y="160" width="160" height="40" as="geometry" />
        </mxCell>
        <mxCell id="rVmmXmZMEpbmEXp4o9_O-24" style="edgeStyle=orthogonalEdgeStyle;rounded=0;orthogonalLoop=1;jettySize=auto;html=1;exitX=1;exitY=0.5;exitDx=0;exitDy=0;entryX=0;entryY=0.5;entryDx=0;entryDy=0;fillColor=#f8cecc;strokeColor=#FF0000;" edge="1" parent="1" source="rVmmXmZMEpbmEXp4o9_O-3" target="rVmmXmZMEpbmEXp4o9_O-12">
          <mxGeometry relative="1" as="geometry" />
        </mxCell>
        <mxCell id="rVmmXmZMEpbmEXp4o9_O-25" style="edgeStyle=orthogonalEdgeStyle;rounded=0;orthogonalLoop=1;jettySize=auto;html=1;exitX=1;exitY=0.5;exitDx=0;exitDy=0;fillColor=#f8cecc;strokeColor=#FF0000;" edge="1" parent="1" source="rVmmXmZMEpbmEXp4o9_O-3" target="rVmmXmZMEpbmEXp4o9_O-13">
          <mxGeometry relative="1" as="geometry" />
        </mxCell>
        <mxCell id="rVmmXmZMEpbmEXp4o9_O-26" style="edgeStyle=orthogonalEdgeStyle;rounded=0;orthogonalLoop=1;jettySize=auto;html=1;exitX=1;exitY=0.5;exitDx=0;exitDy=0;entryX=0;entryY=0.5;entryDx=0;entryDy=0;fillColor=#f8cecc;strokeColor=#FF0000;" edge="1" parent="1" source="rVmmXmZMEpbmEXp4o9_O-3" target="rVmmXmZMEpbmEXp4o9_O-14">
          <mxGeometry relative="1" as="geometry" />
        </mxCell>
        <mxCell id="rVmmXmZMEpbmEXp4o9_O-3" value="2.视觉测量柔性结构振动" style="rounded=1;whiteSpace=wrap;html=1;" vertex="1" parent="1">
          <mxGeometry x="210" y="260" width="160" height="40" as="geometry" />
        </mxCell>
        <mxCell id="rVmmXmZMEpbmEXp4o9_O-27" style="edgeStyle=orthogonalEdgeStyle;rounded=0;orthogonalLoop=1;jettySize=auto;html=1;exitX=1;exitY=0.5;exitDx=0;exitDy=0;entryX=0;entryY=0.5;entryDx=0;entryDy=0;strokeColor=#FF0000;" edge="1" parent="1" source="rVmmXmZMEpbmEXp4o9_O-4" target="rVmmXmZMEpbmEXp4o9_O-15">
          <mxGeometry relative="1" as="geometry" />
        </mxCell>
        <mxCell id="rVmmXmZMEpbmEXp4o9_O-28" style="edgeStyle=orthogonalEdgeStyle;rounded=0;orthogonalLoop=1;jettySize=auto;html=1;exitX=1;exitY=0.5;exitDx=0;exitDy=0;entryX=0;entryY=0.5;entryDx=0;entryDy=0;strokeColor=#FF0000;" edge="1" parent="1" source="rVmmXmZMEpbmEXp4o9_O-4" target="rVmmXmZMEpbmEXp4o9_O-16">
          <mxGeometry relative="1" as="geometry" />
        </mxCell>
        <mxCell id="rVmmXmZMEpbmEXp4o9_O-29" style="edgeStyle=orthogonalEdgeStyle;rounded=0;orthogonalLoop=1;jettySize=auto;html=1;exitX=1;exitY=0.5;exitDx=0;exitDy=0;entryX=0;entryY=0.5;entryDx=0;entryDy=0;strokeColor=#FF0000;" edge="1" parent="1" source="rVmmXmZMEpbmEXp4o9_O-4" target="rVmmXmZMEpbmEXp4o9_O-17">
          <mxGeometry relative="1" as="geometry" />
        </mxCell>
        <mxCell id="rVmmXmZMEpbmEXp4o9_O-4" value="3.频域分析辨识柔性振动参数" style="rounded=1;whiteSpace=wrap;html=1;" vertex="1" parent="1">
          <mxGeometry x="210" y="380" width="160" height="40" as="geometry" />
        </mxCell>
        <mxCell id="rVmmXmZMEpbmEXp4o9_O-30" style="edgeStyle=orthogonalEdgeStyle;rounded=0;orthogonalLoop=1;jettySize=auto;html=1;exitX=1;exitY=0.5;exitDx=0;exitDy=0;entryX=0;entryY=0.5;entryDx=0;entryDy=0;strokeColor=#FF0000;" edge="1" parent="1" source="rVmmXmZMEpbmEXp4o9_O-5" target="rVmmXmZMEpbmEXp4o9_O-19">
          <mxGeometry relative="1" as="geometry" />
        </mxCell>
        <mxCell id="rVmmXmZMEpbmEXp4o9_O-31" style="edgeStyle=orthogonalEdgeStyle;rounded=0;orthogonalLoop=1;jettySize=auto;html=1;exitX=1;exitY=0.5;exitDx=0;exitDy=0;entryX=0;entryY=0.5;entryDx=0;entryDy=0;strokeColor=#FF0000;" edge="1" parent="1" source="rVmmXmZMEpbmEXp4o9_O-5" target="rVmmXmZMEpbmEXp4o9_O-18">
          <mxGeometry relative="1" as="geometry" />
        </mxCell>
        <mxCell id="rVmmXmZMEpbmEXp4o9_O-5" value="4.视觉系统精度分析" style="rounded=1;whiteSpace=wrap;html=1;" vertex="1" parent="1">
          <mxGeometry x="210" y="480" width="160" height="40" as="geometry" />
        </mxCell>
        <mxCell id="rVmmXmZMEpbmEXp4o9_O-10" value="柔性结构航天器&lt;font color=&quot;#0000ff&quot;&gt;动力学&lt;/font&gt;模型" style="rounded=0;whiteSpace=wrap;html=1;" vertex="1" parent="1">
          <mxGeometry x="414" y="150" width="210" height="25" as="geometry" />
        </mxCell>
        <mxCell id="rVmmXmZMEpbmEXp4o9_O-11" value="柔性结构航天器&lt;font color=&quot;#0000ff&quot;&gt;运动学&lt;/font&gt;模型" style="rounded=0;whiteSpace=wrap;html=1;" vertex="1" parent="1">
          <mxGeometry x="414" y="185" width="210" height="25" as="geometry" />
        </mxCell>
        <mxCell id="rVmmXmZMEpbmEXp4o9_O-12" value="合作靶标-&lt;font color=&quot;#0000ff&quot;&gt;单目&lt;/font&gt;视觉测量" style="rounded=0;whiteSpace=wrap;html=1;" vertex="1" parent="1">
          <mxGeometry x="450" y="230" width="210" height="25" as="geometry" />
        </mxCell>
        <mxCell id="rVmmXmZMEpbmEXp4o9_O-13" value="合作靶标-&lt;font color=&quot;#0000ff&quot;&gt;双目&lt;/font&gt;视觉测量" style="rounded=0;whiteSpace=wrap;html=1;" vertex="1" parent="1">
          <mxGeometry x="450" y="267.5" width="210" height="25" as="geometry" />
        </mxCell>
        <mxCell id="rVmmXmZMEpbmEXp4o9_O-14" value="&lt;font color=&quot;#0000ff&quot;&gt;非合作&lt;/font&gt;靶标-双目视觉测量" style="rounded=0;whiteSpace=wrap;html=1;" vertex="1" parent="1">
          <mxGeometry x="450" y="307.5" width="210" height="25" as="geometry" />
        </mxCell>
        <mxCell id="rVmmXmZMEpbmEXp4o9_O-15" value="&lt;font color=&quot;#0000ff&quot;&gt;傅里叶&lt;/font&gt;变换频域辨识" style="rounded=0;whiteSpace=wrap;html=1;" vertex="1" parent="1">
          <mxGeometry x="414" y="350" width="210" height="25" as="geometry" />
        </mxCell>
        <mxCell id="rVmmXmZMEpbmEXp4o9_O-16" value="&lt;font color=&quot;#0000ff&quot;&gt;小波&lt;/font&gt;变换频域辨识" style="rounded=0;whiteSpace=wrap;html=1;" vertex="1" parent="1">
          <mxGeometry x="414" y="387.5" width="210" height="25" as="geometry" />
        </mxCell>
        <mxCell id="rVmmXmZMEpbmEXp4o9_O-17" value="&lt;font color=&quot;#0000ff&quot;&gt;Hilbert&lt;/font&gt;变换频域辨识" style="rounded=0;whiteSpace=wrap;html=1;" vertex="1" parent="1">
          <mxGeometry x="414" y="430" width="210" height="25" as="geometry" />
        </mxCell>
        <mxCell id="rVmmXmZMEpbmEXp4o9_O-18" value="视觉测量精度分析" style="rounded=0;whiteSpace=wrap;html=1;" vertex="1" parent="1">
          <mxGeometry x="450" y="510" width="210" height="25" as="geometry" />
        </mxCell>
        <mxCell id="rVmmXmZMEpbmEXp4o9_O-19" value="算法鲁棒性验证" style="rounded=0;whiteSpace=wrap;html=1;" vertex="1" parent="1">
          <mxGeometry x="450" y="470" width="210" height="25" as="geometry" />
        </mxCell>
      </root>
    </mxGraphModel>
  </diagram>
</mxfile>
